<svg xmlns="http://www.w3.org/2000/svg" xmlns:xlink="http://www.w3.org/1999/xlink" id="Layer_1" x="0px" y="0px" viewBox="0 0 366.26 366.26" style="enable-background:new 0 0 366.26 366.26;" xml:space="preserve"><style type="text/css">	.st0{fill-rule:evenodd;clip-rule:evenodd;}	.st1{stroke:#FFFFFF;stroke-linecap:round;stroke-linejoin:round;stroke-miterlimit:10;}	.st2{fill:transparent;}	.st3{fill:#23A547;}	.st4{fill-rule:evenodd;clip-rule:evenodd;fill:url(#SVGID_1_);}	.st5{fill:url(#SVGID_2_);}	.st6{fill-rule:evenodd;clip-rule:evenodd;fill:url(#SVGID_3_);}	.st7{fill:url(#SVGID_4_);}	.st8{fill:url(#SVGID_5_);}	.st9{fill:url(#SVGID_6_);}	.st10{fill:#17D789;}	.st11{fill:#FFBB37;}	.st12{fill-rule:evenodd;clip-rule:evenodd;fill:#643E17;}	.st13{fill:#23A547;stroke:#23A547;stroke-width:6;stroke-linecap:round;stroke-linejoin:round;stroke-miterlimit:10;}	.st14{fill:#FFBB37;stroke:#FFBB37;stroke-width:2;stroke-linecap:round;stroke-linejoin:round;stroke-miterlimit:10;}	.st15{fill-rule:evenodd;clip-rule:evenodd;fill:url(#SVGID_7_);}	.st16{fill:url(#SVGID_8_);}	.st17{fill-rule:evenodd;clip-rule:evenodd;fill:url(#SVGID_9_);}	.st18{fill:url(#SVGID_10_);}	.st19{fill:url(#SVGID_11_);}	.st20{fill:url(#SVGID_12_);}	.st21{fill:#00B050;}	.st22{fill-rule:evenodd;clip-rule:evenodd;fill:#FFFFFF;}	.st23{fill:#FFFFFF;stroke:#000000;stroke-linecap:round;stroke-linejoin:round;stroke-miterlimit:10;}</style><g>	<path class="st2" d="M318.44,366.26H47.82C21.41,366.26,0,344.85,0,318.44V47.82C0,21.41,21.41,0,47.82,0h270.62  c26.41,0,47.82,21.41,47.82,47.82v270.62C366.26,344.85,344.85,366.26,318.44,366.26z"></path>	<g>		<path class="st21" d="M62.23,229.98h-3.17c-0.83,0-1.5,0.67-1.5,1.5v17.07H38.98v-17.07c0-0.83-0.67-1.5-1.5-1.5h-3.15   c-0.83,0-1.5,0.67-1.5,1.5v40.29c0,0.83,0.67,1.5,1.5,1.5h3.15c0.83,0,1.5-0.67,1.5-1.5v-17.21h18.58v17.21   c0,0.83,0.67,1.5,1.5,1.5h3.17c0.83,0,1.5-0.67,1.5-1.5v-40.29C63.73,230.65,63.06,229.98,62.23,229.98z"></path>		<path class="st21" d="M79.93,243.27c-4.1,0-7.66,1.48-10.58,4.4s-4.4,6.49-4.4,10.61c0,4.1,1.48,7.66,4.4,10.58   c2.92,2.92,6.48,4.4,10.58,4.4c3.34,0,6.29-0.95,8.81-2.84v1.34c0,0.83,0.67,1.5,1.5,1.5h3.15c0.83,0,1.5-0.67,1.5-1.5v-12.45   c0.04-0.35,0.06-0.69,0.06-1.04c0-4.12-1.48-7.69-4.4-10.61S84.05,243.27,79.93,243.27z M86.19,264.51   c-1.74,1.74-3.78,2.58-6.26,2.58c-2.46,0-4.5-0.84-6.25-2.58c-1.74-1.74-2.59-3.77-2.59-6.23c0-2.47,0.85-4.52,2.59-6.26   c1.75-1.74,3.79-2.58,6.25-2.58c2.47,0,4.52,0.84,6.26,2.58c1.74,1.74,2.58,3.78,2.58,6.26   C88.77,260.74,87.92,262.77,86.19,264.51z"></path>		<path class="st21" d="M111.14,243.27c-3.32,0-6.26,0.95-8.78,2.83v-14.6c0-0.83-0.67-1.5-1.5-1.5h-3.17c-0.83,0-1.5,0.67-1.5,1.5   v26.11c-0.02,0.21-0.03,0.43-0.03,0.66c0,4.1,1.48,7.66,4.4,10.58c2.92,2.92,6.48,4.4,10.58,4.4c4.12,0,7.69-1.48,10.6-4.4   c2.91-2.92,4.38-6.48,4.38-10.58c0-4.12-1.48-7.69-4.38-10.61C118.83,244.75,115.26,243.27,111.14,243.27z M117.39,264.51   c-1.75,1.74-3.79,2.58-6.25,2.58c-2.46,0-4.5-0.84-6.25-2.58c-1.74-1.73-2.59-3.76-2.59-6.21c0.04-0.13,0.06-0.27,0.06-0.41v-0.35   c0.24-2.35,1.16-4.24,2.82-5.79c1.67-1.55,3.61-2.31,5.96-2.31c2.46,0,4.5,0.84,6.25,2.58c1.74,1.74,2.59,3.78,2.59,6.26   C119.98,260.74,119.13,262.77,117.39,264.51z"></path>		<path class="st21" d="M131.17,243.24h-3.15c-0.83,0-1.5,0.67-1.5,1.5v27.03c0,0.83,0.67,1.5,1.5,1.5h3.15c0.83,0,1.5-0.67,1.5-1.5   v-27.03C132.67,243.91,132,243.24,131.17,243.24z"></path>		<path class="st21" d="M129.6,235.06c-0.99,0-1.89,0.37-2.59,1.07c-0.7,0.7-1.07,1.6-1.07,2.59c0,1,0.37,1.89,1.07,2.59   c0.7,0.7,1.6,1.07,2.59,1.07c1,0,1.89-0.37,2.59-1.07c0.7-0.7,1.07-1.6,1.07-2.59c0-0.99-0.37-1.89-1.07-2.59   C131.49,235.43,130.59,235.06,129.6,235.06z"></path>		<path class="st21" d="M148.82,267.09c-2.29,0-4.17-0.76-5.74-2.33c-1.58-1.57-2.38-3.48-2.45-5.83v-0.51c0-1.08,0-2.63,0.01-4.64   c0.01-1.55,0.01-3.17,0.01-4.84h6.9c0.83,0,1.5-0.67,1.5-1.5v-2.73c0-0.83-0.67-1.5-1.5-1.5h-6.9c0-1.34,0.01-2.82,0.03-4.44   c0-0.4-0.15-0.79-0.44-1.07c-0.28-0.28-0.67-0.44-1.06-0.44h-3.17c-0.83,0-1.5,0.67-1.5,1.49l-0.03,6.02l0,14.23   c0.1,4.02,1.54,7.43,4.28,10.16c2.74,2.73,6.13,4.12,10.06,4.12c0.83,0,1.5-0.67,1.5-1.5v-3.17   C150.32,267.76,149.65,267.09,148.82,267.09z"></path>		<path class="st21" d="M226.45,247.38c-2.74-2.73-6.13-4.12-10.06-4.12c-4.63,0-8.4,1.85-11.24,5.5c-2.84-3.65-6.62-5.5-11.27-5.5   c-3.92,0-7.29,1.38-10.03,4.12c-2.48,2.47-3.89,5.51-4.22,9.07c-0.38-3.35-1.81-6.3-4.29-8.79c-2.92-2.92-6.49-4.4-10.61-4.4   c-4.1,0-7.66,1.48-10.58,4.4s-4.4,6.48-4.4,10.58c0,4.12,1.48,7.69,4.4,10.61c2.92,2.92,6.48,4.4,10.58,4.4   c4.12,0,7.69-1.48,10.61-4.4c2.34-2.34,3.74-5.11,4.21-8.24v11.14c0,0.83,0.67,1.5,1.5,1.5h3.17c0.83,0,1.5-0.67,1.5-1.5l0-14.15   c0.06-2.36,0.87-4.28,2.45-5.86c1.58-1.58,3.44-2.34,5.71-2.34c2.27,0,4.14,0.76,5.71,2.33c1.59,1.58,2.4,3.5,2.48,5.81v14.22   c0,0.83,0.67,1.5,1.5,1.5h3.15c0.83,0,1.5-0.67,1.5-1.5l0-14.17c0.06-2.36,0.87-4.27,2.45-5.85c1.58-1.57,3.45-2.33,5.71-2.33   c2.29,0,4.16,0.77,5.74,2.34c1.59,1.59,2.39,3.5,2.45,5.79v14.22c0,0.83,0.67,1.5,1.5,1.5h3.15c0.83,0,1.5-0.67,1.5-1.5v-14.22   c0-0.01,0-0.03,0-0.04C230.62,253.52,229.18,250.11,226.45,247.38z M170.98,264.51c-1.74,1.74-3.78,2.58-6.26,2.58   c-2.46,0-4.5-0.84-6.25-2.58c-1.74-1.74-2.59-3.78-2.59-6.25c0-2.45,0.85-4.49,2.59-6.23c1.75-1.74,3.79-2.58,6.25-2.58   c2.47,0,4.52,0.84,6.26,2.58c1.74,1.74,2.58,3.78,2.58,6.23C173.56,260.73,172.71,262.77,170.98,264.51z"></path>		<path class="st21" d="M235.6,235.06c-0.99,0-1.89,0.37-2.59,1.07c-0.7,0.7-1.07,1.6-1.07,2.59c0,1,0.37,1.89,1.07,2.59   c0.7,0.7,1.6,1.07,2.59,1.07c1,0,1.89-0.37,2.59-1.07c0.7-0.7,1.07-1.6,1.07-2.59c0-0.99-0.37-1.89-1.07-2.59   C237.49,235.43,236.6,235.06,235.6,235.06z"></path>		<path class="st21" d="M237.18,243.24h-3.15c-0.83,0-1.5,0.67-1.5,1.5v27.03c0,0.83,0.67,1.5,1.5,1.5h3.15c0.83,0,1.5-0.67,1.5-1.5   v-27.03C238.68,243.91,238,243.24,237.18,243.24z"></path>		<path class="st21" d="M329.46,164.7c-2.47-2.09-5.22-3.69-8.42-4.33c-4.53-0.91-8.7-0.7-12.49,0.6c-5.5,1.89-8.66,5.42-10.2,7.18   c-1.69,1.93-2.92,3.88-3.86,5.8c0.01-0.5,0.01-1.25,0-2.17c0,0-0.07-5.86-1.11-12.3c-2.67-16.52-7.25-26.59-7.25-26.59   c-2.86-6.29-8.67-18.63-22.28-28.27c-4.6-3.26-17.09-10.16-34.25-11.49c-9.39-0.73-18.29,1.56-26.81,5.42   c-4.72,2.14-9.29,4.56-14.02,7.38c1.03,0.56,1.8,1.02,2.61,1.41c10.55,4.97,18.47,12.68,23.98,22.94   c2.72,5.06,5.48,10.1,8.33,15.09c1.17,2.05,2.48,4.03,3.92,5.9c8.89,11.54,26.89,12.51,37.09,2.05c7.77-7.96,7.82-22.08,0.1-30.09   c-9.09-9.44-25.31-5.78-28.83,6.53c-1.35,4.71-0.31,8.93,3.21,12.36c3.57,3.48,7.87,4.93,12.78,3.69   c3.88-0.98,6.09-3.69,6.97-7.55c-0.73-0.53-1.21,0.14-1.72,0.35c-2.09,0.85-4.25,1.13-6.48,0.9c-3.43-0.35-5.86-2.55-5.93-5.34   c-0.08-3.14,2.42-6,5.71-6.53c5.46-0.88,10.07,3.12,10.58,9.16c0.62,7.4-4.37,13.06-12.25,14.03c-5.84,0.71-10.5-1.22-14.09-5.86   c-2.37-3.07-4.2-6.46-6-9.88c-6.56-12.49-8.87-15.71-20.52-28.67c2.72-1.35,5.57-2.08,8.44-2.66c22.16-4.45,44.85,5.4,57.12,25.07   c3.72,5.96,5.92,12.55,8.88,21.45c1.38,4.16,3.57,10.84,5.16,19.8c2.73,11.46,2.15,20.81,1.89,25.53   c-0.49,9-2.09,17.92-4.34,26.64c-2.38,9.24-5.39,18.43-9.14,27.25c-1.94,4.56-4.41,9-7.86,12.61c-3.63,3.8-8.01,5.34-13.3,5.01   c-3.97-0.35-7.44-3.77-7.95-7.69c-0.48-3.65,1.6-7.49,4.91-9.09s7.61-0.84,10.18,1.8c0.48,0.49,0.98,1.08,1.66,1.13   c0.62,0.04,1.16-0.38,1.64-0.78c0.51-0.43,1.02-0.86,1.52-1.28c0.4-0.34,0.83-0.73,0.89-1.25c0.06-0.52-0.28-0.99-0.62-1.39   c-4.09-4.8-11.4-6.54-17.22-4.09c-5.82,2.45-9.69,8.88-9.12,15.16c0.57,6.32,5.5,11.63,11.57,13.16   c7.46,1.89,13.54-2.75,17.8-8.44c4.93-6.58,8.29-14.15,11.26-21.77c2.87-7.37,6.12-15,8.13-22.65   c4.15-15.84,4.74-29.63,4.53-39.15c0.03-0.06,0.07-0.15,0.12-0.26c1.37-2.84,2.73-4.85,3.58-6.11c1.82-2.68,3.18-4.67,4.98-6.31   c5.94-5.39,14.42-6.53,21.38-2.97c0.9,0.46,1.78,0.97,2.56,1.68c-5.1,3.22-6.17,4.07-9.53,7.61c-0.92,0.97-1.85,1.93-2.93,2.72   c-1.63,1.21-3.36,1.41-5.24,0.62c-2.53-1.06-3.66-3.42-2.76-5.82c0.74-1.97,2.65-2.86,4.39-2.05c1.05,0.49,1.61,1.67,1.29,2.71   c-0.29,0.92-1.3,1.43-2.48,1.22c-0.76-0.13-1.46-0.43-2.07-0.91c-0.15-0.12-0.25-0.39-0.54-0.28c-0.07,1.37,0.41,2.48,1.61,3.17   c1.52,0.88,3.09,0.8,4.6-0.02c1.5-0.81,2.24-2.12,2.23-3.81c-0.01-4.43-5.07-7.18-8.99-4.89c-3.32,1.94-4.64,6.65-2.8,10.03   c2.41,4.44,8.5,5.82,12.55,2.81c0.65-0.49,1.28-1.02,1.86-1.59c1.42-1.39,2.81-2.81,4.19-4.24c2.8-2.9,6.16-4.72,10.15-5.38   c0.31-0.05,0.61-0.13,1-0.22C332.12,167.09,330.83,165.86,329.46,164.7z"></path>	</g></g></svg>