<svg xmlns="http://www.w3.org/2000/svg" width="152" height="48" viewBox="0 0 152 48" fill="none"><path d="M6.19909 0H145.85C149.256 0 152.024 2.5824 152.024 5.76V42.24C152.024 45.4176 149.256 48 145.85 48H6.19909C2.79273 48 0.0244141 45.4176 0.0244141 42.24V5.76C0.0244141 2.5824 2.79273 0 6.19909 0Z" fill="#404040"></path><path d="M39.1817 23.2527C39.1549 20.1023 41.7993 18.5711 41.9154 18.5007C40.4145 16.3535 38.0917 16.0543 37.2788 16.0279C35.3312 15.8255 33.4373 17.1807 32.4456 17.1807C31.4361 17.1807 29.8995 16.0543 28.2557 16.0807C26.1384 16.1159 24.1461 17.3215 23.0652 19.2047C20.8228 23.0327 22.4934 28.6647 24.6464 31.7623C25.7274 33.2759 26.9781 34.9743 28.6309 34.9127C30.239 34.8511 30.8465 33.9007 32.7851 33.9007C34.7148 33.9007 35.2776 34.9127 36.9572 34.8775C38.6903 34.8511 39.7713 33.3551 40.8165 31.8239C42.0583 30.0903 42.5586 28.3743 42.5765 28.2863C42.5318 28.2687 39.2174 27.0191 39.1817 23.2527" fill="white"></path><path d="M36.0105 13.9952C36.877 12.9304 37.4667 11.4784 37.3059 10C36.0551 10.0528 34.4828 10.8536 33.5805 11.9008C32.7854 12.8248 32.0707 14.3296 32.2494 15.7464C33.6609 15.852 35.1082 15.0424 36.0105 13.9952" fill="white"></path><path d="M62.5162 34.6924H60.2649L59.0321 30.8732H54.7439L53.5735 34.6924H51.3848L55.6283 21.6948H58.2548L62.5162 34.6924ZM58.6658 29.2716L57.5491 25.8836C57.4329 25.5316 57.2096 24.722 56.888 23.4372H56.8433C56.7093 23.9916 56.5038 24.81 56.2179 25.8836L55.1191 29.2716H58.6658Z" fill="white"></path><path d="M73.4248 29.8966C73.4248 31.4894 72.9871 32.7478 72.1026 33.6718C71.3165 34.499 70.3337 34.9038 69.1724 34.9038C67.9127 34.9038 67.0104 34.4638 66.4565 33.575V38.4942H64.3392V28.4006C64.3392 27.3974 64.3124 26.3766 64.2588 25.3206H66.117L66.2332 26.8078H66.2689C66.9747 25.6902 68.0467 25.127 69.4761 25.127C70.6018 25.127 71.5309 25.567 72.2813 26.4382C73.0496 27.3182 73.4248 28.4622 73.4248 29.8966V29.8966ZM71.2718 29.967C71.2718 29.0518 71.0663 28.3038 70.6464 27.7142C70.1908 27.0982 69.5744 26.7902 68.8061 26.7902C68.2879 26.7902 67.8144 26.9662 67.3856 27.3006C66.9657 27.6438 66.6798 28.0838 66.5548 28.6382C66.4922 28.8934 66.4565 29.1046 66.4565 29.2718V30.8382C66.4565 31.5158 66.6709 32.0966 67.0908 32.563C67.5107 33.0294 68.0646 33.267 68.7435 33.267C69.5386 33.267 70.1551 32.959 70.6018 32.3606C71.0484 31.7534 71.2718 30.9614 71.2718 29.967V29.967Z" fill="white"></path><path d="M84.3594 29.8966C84.3594 31.4894 83.9216 32.7478 83.0372 33.6718C82.251 34.499 81.2683 34.9038 80.1069 34.9038C78.8473 34.9038 77.945 34.4638 77.3911 33.575V38.4942H75.2738V28.4006C75.2738 27.3974 75.247 26.3766 75.1934 25.3206H77.0516L77.1677 26.8078H77.2035C77.9092 25.6902 78.9813 25.127 80.4107 25.127C81.5363 25.127 82.4654 25.567 83.2159 26.4382C83.9842 27.3182 84.3594 28.4622 84.3594 29.8966ZM82.2064 29.967C82.2064 29.0518 82.0009 28.3038 81.581 27.7142C81.1254 27.0982 80.5089 26.7902 79.7406 26.7902C79.2225 26.7902 78.749 26.9662 78.3202 27.3006C77.9003 27.6438 77.6233 28.0838 77.4893 28.6382C77.4268 28.8934 77.3911 29.1046 77.3911 29.2718V30.8382C77.3911 31.5158 77.6055 32.0966 78.0254 32.563C78.4452 33.0294 78.9991 33.267 79.6781 33.267C80.4732 33.267 81.0986 32.959 81.5363 32.3606C81.992 31.7534 82.2064 30.9614 82.2064 29.967V29.967Z" fill="white"></path><path d="M96.5982 31.0495C96.5982 32.1583 96.2051 33.0559 95.4279 33.7511C94.5703 34.5079 93.3731 34.8863 91.8365 34.8863C90.4161 34.8863 89.2815 34.6135 88.4238 34.0767L88.9152 32.3431C89.8443 32.8799 90.8627 33.1527 91.9705 33.1527C92.7656 33.1527 93.391 32.9767 93.8288 32.6247C94.2754 32.2727 94.4988 31.7975 94.4988 31.2079C94.4988 30.6799 94.3112 30.2399 93.9538 29.8791C93.5875 29.5183 92.98 29.1839 92.1313 28.8759C89.7996 28.0223 88.6472 26.7815 88.6472 25.1535C88.6472 24.0887 89.0581 23.2175 89.8711 22.5311C90.6841 21.8535 91.7651 21.5103 93.1141 21.5103C94.3112 21.5103 95.3118 21.7127 96.1069 22.1263L95.5708 23.8159C94.8204 23.4199 93.9806 23.2175 93.0336 23.2175C92.2921 23.2175 91.7025 23.4023 91.2826 23.7543C90.9342 24.0799 90.7555 24.4671 90.7555 24.9335C90.7555 25.4439 90.961 25.8751 91.363 26.2007C91.7115 26.5087 92.3547 26.8431 93.2838 27.2039C94.4184 27.6527 95.2492 28.1807 95.7852 28.7879C96.3302 29.3951 96.5982 30.1519 96.5982 31.0495" fill="white"></path><path d="M103.603 26.8872H101.271V31.4368C101.271 32.5896 101.682 33.1704 102.504 33.1704C102.879 33.1704 103.192 33.1352 103.442 33.0736L103.504 34.6576C103.084 34.8072 102.539 34.8864 101.86 34.8864C101.021 34.8864 100.377 34.6312 99.904 34.1296C99.4305 33.628 99.1982 32.7832 99.1982 31.604V26.8784H97.8135V25.3208H99.1982V23.6048L101.271 22.9888V25.3208H103.603V26.8872" fill="white"></path><path d="M114.09 29.9317C114.09 31.3749 113.67 32.5541 112.84 33.4781C111.964 34.4285 110.803 34.9037 109.355 34.9037C107.962 34.9037 106.845 34.4461 106.014 33.5397C105.183 32.6333 104.772 31.4805 104.772 30.0901C104.772 28.6381 105.201 27.4501 106.05 26.5261C106.908 25.6021 108.06 25.1357 109.507 25.1357C110.901 25.1357 112.027 25.5933 112.875 26.5085C113.688 27.3885 114.09 28.5325 114.09 29.9317V29.9317ZM111.902 29.9757C111.902 29.1133 111.714 28.3829 111.339 27.7669C110.892 27.0189 110.258 26.6493 109.436 26.6493C108.587 26.6493 107.935 27.0189 107.497 27.7669C107.113 28.3829 106.934 29.1309 106.934 30.0197C106.934 30.8821 107.122 31.6213 107.497 32.2285C107.953 32.9765 108.596 33.3461 109.418 33.3461C110.222 33.3461 110.856 32.9677 111.321 32.2109C111.705 31.5773 111.902 30.8381 111.902 29.9757V29.9757Z" fill="white"></path><path d="M120.969 27.151C120.764 27.1158 120.541 27.0982 120.299 27.0982C119.558 27.0982 118.977 27.371 118.575 27.9254C118.227 28.4094 118.048 29.0342 118.048 29.7734V34.6926H115.931V28.2686C115.931 27.1862 115.913 26.2006 115.868 25.3206H117.709L117.789 27.1158H117.851C118.075 26.4998 118.423 25.9982 118.906 25.6286C119.379 25.2942 119.888 25.127 120.433 25.127C120.63 25.127 120.809 25.1446 120.96 25.1622L120.969 27.151" fill="white"></path><path d="M130.422 29.5622C130.422 29.9318 130.395 30.2486 130.342 30.5038H123.999C124.026 31.4278 124.329 32.1406 124.919 32.6246C125.455 33.0558 126.143 33.2758 126.992 33.2758C127.93 33.2758 128.787 33.1262 129.556 32.8358L129.886 34.279C128.984 34.6662 127.921 34.8598 126.697 34.8598C125.223 34.8598 124.061 34.4286 123.222 33.575C122.382 32.7214 121.962 31.5686 121.962 30.1342C121.962 28.7262 122.355 27.547 123.141 26.6054C123.963 25.6022 125.071 25.1006 126.465 25.1006C127.831 25.1006 128.877 25.6022 129.573 26.6054C130.136 27.415 130.422 28.3918 130.422 29.5622V29.5622ZM128.403 29.0254C128.421 28.4094 128.278 27.8726 127.992 27.4238C127.626 26.843 127.063 26.5526 126.313 26.5526C125.625 26.5526 125.062 26.8342 124.633 27.3974C124.285 27.8462 124.07 28.3918 124.008 29.0166L128.403 29.0254V29.0254Z" fill="white"></path><path d="M57.6473 17.049H56.5395L55.932 15.1746H53.8236L53.2429 17.049H52.1709L54.2525 10.6602H55.5389L57.6473 17.049ZM55.7444 14.3826L55.1994 12.7106C55.1458 12.5434 55.0386 12.1386 54.8689 11.505H54.851C54.7796 11.7778 54.6902 12.1738 54.5383 12.7106L54.0023 14.3826H55.7444Z" fill="white"></path><path d="M62.8648 12.4375L61.0959 17.0487H60.0864L58.3711 12.4375H59.4878L60.2829 14.8751C60.4169 15.2799 60.5331 15.6671 60.6224 16.0367H60.6492C60.7296 15.7023 60.8457 15.3151 60.9887 14.8751L61.7749 12.4375H62.8648" fill="white"></path><path d="M66.6349 17.0488L66.5545 16.5208H66.5277C66.2061 16.9432 65.7505 17.1544 65.1608 17.1544C64.3211 17.1544 63.7314 16.5736 63.7314 15.7992C63.7314 14.664 64.732 14.0744 66.4652 14.0744V13.9864C66.4652 13.3792 66.1346 13.08 65.4914 13.08C65.0268 13.08 64.6248 13.1944 64.2675 13.4232L64.0531 12.7544C64.4819 12.4904 65.0268 12.3584 65.6611 12.3584C66.8851 12.3584 67.5015 12.992 67.5015 14.268V15.9664C67.5015 16.4328 67.5194 16.7936 67.573 17.0664L66.6349 17.0488V17.0488ZM66.492 14.752C65.3395 14.752 64.7588 15.0248 64.7588 15.6848C64.7588 16.1688 65.0536 16.4064 65.4735 16.4064C66.0006 16.4064 66.492 16.0104 66.492 15.4648V14.752Z" fill="white"></path><path d="M69.8147 11.6807C69.4663 11.6807 69.1982 11.4167 69.1982 11.0647C69.1982 10.7127 69.4752 10.4575 69.8325 10.4575C70.1899 10.4575 70.4758 10.7127 70.4668 11.0647C70.4668 11.4343 70.1988 11.6807 69.8147 11.6807V11.6807ZM69.3144 12.4375H70.3507V17.0399H69.3144V12.4375V12.4375Z" fill="white"></path><path d="M72.2002 10.3257H73.2365V17.0401H72.2002V10.3257Z" fill="white"></path><path d="M77.6496 17.0488L77.5692 16.5208H77.5424C77.2207 16.9432 76.7651 17.1544 76.1755 17.1544C75.3357 17.1544 74.7461 16.5736 74.7461 15.7992C74.7461 14.664 75.7467 14.0744 77.4798 14.0744V13.9864C77.4798 13.3792 77.1493 13.08 76.506 13.08C76.0415 13.08 75.6395 13.1944 75.2821 13.4232L75.0677 12.7456C75.4965 12.4816 76.0415 12.3496 76.6758 12.3496C77.8997 12.3496 78.5161 12.9832 78.5161 14.2592V15.9576C78.5161 16.424 78.534 16.7848 78.5787 17.0576H77.6496V17.0488V17.0488ZM77.5066 14.752C76.3542 14.752 75.7735 15.0248 75.7735 15.6848C75.7735 16.1688 76.0683 16.4064 76.4882 16.4064C77.0153 16.4064 77.5066 16.0104 77.5066 15.4648V14.752Z" fill="white"></path><path d="M82.7329 17.1545C82.0718 17.1545 81.5804 16.8817 81.2588 16.3361H81.2409L81.1784 17.0489H80.2939C80.3207 16.6793 80.3297 16.2657 80.3297 15.8081V10.3257H81.3749V13.1153H81.3928C81.7055 12.6049 82.1968 12.3497 82.8847 12.3497C84.0104 12.3497 84.7966 13.3001 84.7966 14.6817C84.7966 16.1073 83.9211 17.1545 82.7329 17.1545V17.1545ZM82.5185 13.1505C81.9199 13.1505 81.3749 13.6609 81.3749 14.3737V15.1833C81.3749 15.8169 81.8663 16.3361 82.5006 16.3361C83.2778 16.3361 83.7424 15.7113 83.7424 14.7169C83.7424 13.7841 83.26 13.1505 82.5185 13.1505V13.1505Z" fill="white"></path><path d="M86.334 10.3257H87.3703V17.0401H86.334V10.3257Z" fill="white"></path><path d="M93.0247 14.9896H89.9068C89.9247 15.8608 90.5143 16.3536 91.3809 16.3536C91.8455 16.3536 92.2653 16.2744 92.6406 16.1336L92.8014 16.8464C92.3636 17.04 91.8455 17.128 91.238 17.128C89.7728 17.128 88.9062 16.2216 88.9062 14.8048C88.9062 13.3968 89.7907 12.332 91.1218 12.332C92.31 12.332 93.0694 13.2032 93.0694 14.5232C93.0694 14.708 93.0604 14.8664 93.0247 14.9896V14.9896ZM92.0777 14.2592C92.0777 13.5464 91.7115 13.0448 91.0504 13.0448C90.4518 13.0448 89.9872 13.5552 89.9158 14.2592H92.0777Z" fill="white"></path><path d="M99.3236 17.1544C97.9567 17.1544 97.0723 16.1512 97.0723 14.7872C97.0723 13.3616 97.9746 12.3496 99.404 12.3496C100.753 12.3496 101.655 13.3088 101.655 14.708C101.655 16.1424 100.726 17.1544 99.3236 17.1544ZM99.3682 13.0976C98.6178 13.0976 98.1354 13.7928 98.1354 14.752C98.1354 15.7024 98.6267 16.3888 99.3593 16.3888C100.092 16.3888 100.583 15.6496 100.583 14.7256C100.574 13.7928 100.101 13.0976 99.3682 13.0976V13.0976Z" fill="white"></path><path d="M107.238 17.0488H106.202V14.4C106.202 13.5816 105.88 13.1768 105.255 13.1768C104.638 13.1768 104.219 13.696 104.219 14.3032V17.04H103.182V13.7576C103.182 13.3528 103.173 12.9128 103.146 12.4376H104.058L104.102 13.1504H104.129C104.406 12.6576 104.978 12.3408 105.612 12.3408C106.595 12.3408 107.238 13.08 107.238 14.2856V17.0488Z" fill="white"></path><path d="M114.037 13.2119H112.894V15.4471C112.894 16.0191 113.099 16.3007 113.501 16.3007C113.68 16.3007 113.841 16.2831 113.966 16.2567L113.992 17.0311C113.787 17.1103 113.519 17.1455 113.188 17.1455C112.366 17.1455 111.884 16.6967 111.884 15.5351V13.2119H111.205V12.4463H111.884V11.6015L112.902 11.2935V12.4375H114.046V13.2119" fill="white"></path><path d="M119.54 17.0489H118.504V14.4177C118.504 13.5905 118.182 13.1769 117.557 13.1769C117.021 13.1769 116.521 13.5377 116.521 14.2681V17.0401H115.484V10.3257H116.521V13.0889H116.539C116.869 12.5873 117.334 12.3409 117.941 12.3409C118.933 12.3409 119.54 13.0977 119.54 14.3033V17.0489" fill="white"></path><path d="M124.847 14.9896H121.729C121.747 15.8608 122.337 16.3536 123.203 16.3536C123.668 16.3536 124.088 16.2744 124.463 16.1336L124.624 16.8464C124.186 17.04 123.668 17.128 123.06 17.128C121.595 17.128 120.729 16.2216 120.729 14.8048C120.729 13.3968 121.613 12.332 122.944 12.332C124.132 12.332 124.892 13.2032 124.892 14.5232C124.892 14.708 124.883 14.8664 124.847 14.9896V14.9896ZM123.9 14.2592C123.9 13.5464 123.534 13.0448 122.873 13.0448C122.274 13.0448 121.801 13.5552 121.738 14.2592H123.9Z" fill="white"></path></svg>