<svg xmlns="http://www.w3.org/2000/svg" width="152" height="48" viewBox="0 0 152 48" fill="none"><path d="M6.17468 0H145.825C149.232 0 152 2.5824 152 5.76V42.24C152 45.4176 149.232 48 145.825 48H6.17468C2.76831 48 0 45.4176 0 42.24V5.76C0 2.5824 2.76831 0 6.17468 0Z" fill="#404040"></path><path fill-rule="evenodd" clip-rule="evenodd" d="M16.5524 8.48619C16.2016 8.87286 16 9.468 16 10.2413V37.7488C16 38.5222 16.2016 39.1173 16.5655 39.4905L16.6605 39.5729L31.6872 24.1598V23.8135L16.6474 8.40381L16.5524 8.48619Z" fill="url(#paint0_linear_7296_22869)"></path><path fill-rule="evenodd" clip-rule="evenodd" d="M36.686 29.3176L31.6738 24.1749V23.8151L36.6876 18.6724L36.7958 18.7413L42.7258 22.1978C44.4239 23.1796 44.4239 24.7969 42.7258 25.7922L36.7958 29.2487C36.7942 29.2487 36.686 29.3176 36.686 29.3176Z" fill="url(#paint1_linear_7296_22869)"></path><path fill-rule="evenodd" clip-rule="evenodd" d="M36.7938 29.2488L31.6735 23.9951L16.5518 39.5057C17.1041 40.1143 18.0334 40.1832 19.0726 39.5881L36.7938 29.2488Z" fill="url(#paint2_linear_7296_22869)"></path><path fill-rule="evenodd" clip-rule="evenodd" d="M36.7938 18.7431L19.0726 8.41734C18.0351 7.80875 17.1041 7.89113 16.5518 8.49971L31.6718 23.9952L36.7938 18.7431Z" fill="url(#paint3_linear_7296_22869)"></path><path fill-rule="evenodd" clip-rule="evenodd" d="M55.3396 29.3109C55.3396 25.8323 58.2634 23 61.742 23C63.6651 23 65.0335 23.7552 66.066 24.7386L64.8503 25.9544C64.1124 25.2616 63.1117 24.724 61.7407 24.724C59.2004 24.724 57.2149 26.7693 57.2149 29.3095C57.2149 31.8498 59.2004 33.8977 61.7394 33.8977C63.3864 33.8977 64.3234 33.2367 64.9246 32.6342C65.417 32.1418 65.7395 31.4344 65.8643 30.4642H61.742V28.7441H67.5445C67.6056 29.0521 67.6375 29.421 67.6375 29.8205C67.6375 31.1119 67.2831 32.7138 66.143 33.8539C65.0335 35.0086 63.6187 35.6244 61.7407 35.6244C58.2607 35.6244 55.3369 32.7948 55.3369 29.3135L55.3396 29.3109ZM72.3278 27.4952C70.0808 27.4952 68.2466 29.2047 68.2466 31.5578C68.2466 33.899 70.0795 35.6204 72.3278 35.6204C74.5761 35.6204 76.4063 33.8964 76.4063 31.5565C76.4063 29.2034 74.5748 27.4939 72.3278 27.4952ZM72.3278 34.0224C71.0975 34.0224 70.0344 33.0071 70.0344 31.5591C70.0344 30.0966 71.0961 29.0959 72.3278 29.0959C73.5581 29.0959 74.6199 30.0952 74.6199 31.5591C74.6199 33.0058 73.5594 34.0224 72.3278 34.0224ZM81.2267 27.4952C78.9797 27.4952 77.1482 29.2047 77.1482 31.5578C77.1482 33.899 78.9797 35.6204 81.2267 35.6204C83.4737 35.6204 85.3052 33.8964 85.3052 31.5565C85.3052 29.2034 83.475 27.4939 81.2267 27.4952ZM81.2267 34.0224C79.9964 34.0224 78.9333 33.0071 78.9333 31.5591C78.9333 30.0966 79.9951 29.0959 81.2267 29.0959C82.457 29.0959 83.5201 30.0952 83.5201 31.5591C83.5201 33.0058 82.457 34.0224 81.2267 34.0224ZM92.1483 27.7421V28.4031H92.0872C91.6877 27.9239 90.918 27.4939 89.9491 27.4939C87.9172 27.4939 86.0524 29.2803 86.0524 31.5751C86.0524 33.8512 87.9158 35.623 89.9491 35.623C90.918 35.623 91.6877 35.193 92.0872 34.7006H92.1483V35.2846C92.1483 36.8388 91.3174 37.6709 89.9783 37.6709C88.8847 37.6709 88.2078 36.8852 87.9304 36.2256L86.3749 36.8719C86.8209 37.9483 88.0074 39.2729 89.977 39.2729C92.0686 39.2729 93.8391 38.0399 93.8391 35.0391V27.7408L92.1483 27.7421ZM90.1017 34.0224C88.8714 34.0224 87.8375 32.9899 87.8375 31.5751C87.8375 30.1443 88.8701 29.0972 90.1017 29.0972C91.3175 29.0972 92.2717 30.143 92.2717 31.5751C92.273 32.9899 91.3188 34.0224 90.1017 34.0224ZM95.0721 23.4313H96.8585V35.3762H95.0721V23.4313ZM101.755 34.0224C100.847 34.0224 100.199 33.6057 99.7863 32.7921L105.22 30.5425L105.033 30.0806C104.696 29.1742 103.663 27.4952 101.554 27.4952C99.4612 27.4952 97.7212 29.1423 97.7212 31.5591C97.7212 33.8353 99.4453 35.6217 101.755 35.6217C103.618 35.6217 104.696 34.4843 105.142 33.8207L103.756 32.8983C103.293 33.5765 102.661 34.0238 101.755 34.0224ZM101.615 29.0653C102.323 29.0653 102.923 29.4197 103.123 29.9267L99.4891 31.4357C99.4439 29.8656 100.706 29.0653 101.615 29.0653ZM113.058 23.4313H108.787V35.3762H110.57V30.8517H113.06C115.036 30.8517 116.979 29.421 116.979 27.1409C116.979 24.8647 115.037 23.4327 113.062 23.4327L113.058 23.4313ZM113.105 29.1888H110.57V25.093H113.105C114.437 25.093 115.197 26.1986 115.197 27.1409C115.197 28.0673 114.437 29.1888 113.105 29.1888ZM119.744 35.3762V23.4313H117.961V35.3762H119.744ZM127.751 35.355V30.7761C127.751 28.6552 126.166 27.4727 124.121 27.4727C122.832 27.4727 121.495 28.0421 120.942 29.3016L122.524 29.9612C122.862 29.3016 123.492 29.0852 124.154 29.0852C125.075 29.0852 126.012 29.6387 126.027 30.6235V30.7469C125.704 30.5624 125.014 30.285 124.167 30.285C122.462 30.285 120.726 31.222 120.726 32.9739C120.726 34.5732 122.125 35.6018 123.692 35.6018C124.892 35.6018 125.551 35.0643 125.965 34.4352H126.027V35.3576H127.749L127.751 35.355ZM123.908 34.0198C123.324 34.0198 122.509 33.7278 122.509 33.0071C122.509 32.0847 123.525 31.729 124.401 31.729C125.185 31.729 125.553 31.8976 126.031 32.1285C125.894 33.2009 124.987 34.0065 123.908 34.0198ZM134.019 27.7341L131.975 32.9116H131.914L129.793 27.7341H127.873L131.053 34.9727L129.238 38.9981H131.098L135.999 27.7341H134.019Z" fill="#EBF3F5"></path><path d="M61.1523 17.4385C60.5306 17.9072 59.7233 18.1416 58.7305 18.1416C58.1185 18.1416 57.5602 17.9919 57.0557 17.6924C56.5511 17.3929 56.1556 16.9876 55.8691 16.4766C55.5827 15.9655 55.4395 15.4072 55.4395 14.8018C55.4395 14.1963 55.5859 13.6364 55.8789 13.1221C56.1719 12.6077 56.5706 12.2008 57.0752 11.9014C57.583 11.6019 58.1348 11.4521 58.7305 11.4521C59.7233 11.4521 60.5127 11.7451 61.0986 12.3311L60.2686 13.2783C59.8291 12.8942 59.3197 12.7021 58.7402 12.7021C58.3789 12.7021 58.0469 12.7965 57.7441 12.9854C57.4414 13.1709 57.2021 13.4248 57.0264 13.7471C56.8538 14.0693 56.7676 14.4209 56.7676 14.8018C56.7676 15.3844 56.9629 15.8792 57.3535 16.2861C57.7441 16.6898 58.2324 16.8916 58.8184 16.8916C59.2025 16.8916 59.5638 16.807 59.9023 16.6377V14.8311H61.1523V17.4385ZM64.7168 18.1416C64.2318 18.1416 63.7907 18.0277 63.3936 17.7998C62.9997 17.5719 62.6937 17.266 62.4756 16.8818C62.2575 16.4945 62.1484 16.0713 62.1484 15.6123C62.1484 15.1501 62.2526 14.7253 62.4609 14.3379C62.6725 13.9473 62.9639 13.638 63.335 13.4102C63.7061 13.1823 64.1178 13.0684 64.5703 13.0684C65.2539 13.0684 65.8252 13.3027 66.2842 13.7715C66.7464 14.237 66.9775 14.8164 66.9775 15.5098C66.9775 15.6986 66.9678 15.832 66.9482 15.9102H63.3984C63.4603 16.252 63.6117 16.5286 63.8525 16.7402C64.0967 16.9518 64.401 17.0576 64.7656 17.0576C65.2246 17.0576 65.6152 16.8916 65.9375 16.5596L66.5674 17.3896C66.3786 17.611 66.1198 17.7917 65.791 17.9316C65.4655 18.0716 65.1074 18.1416 64.7168 18.1416ZM64.5898 14.1084C64.2904 14.1084 64.0381 14.2028 63.833 14.3916C63.6279 14.5771 63.4896 14.8262 63.418 15.1387H65.7275C65.6592 14.8034 65.5241 14.5479 65.3223 14.3721C65.1237 14.1963 64.8796 14.1084 64.5898 14.1084ZM67.5244 14.2891V13.21H68.374V11.9697H69.5947V13.21H70.8936V14.2891H69.6045V16.3203C69.6045 16.7663 69.7884 16.9893 70.1562 16.9893C70.3906 16.9893 70.5762 16.9095 70.7129 16.75L71.2646 17.6582C70.9294 17.9805 70.4932 18.1416 69.9561 18.1416C69.4613 18.1416 69.0723 17.9886 68.7891 17.6826C68.5059 17.3766 68.3643 16.9355 68.3643 16.3594V14.2891H67.5244ZM75.5127 13.21V18H74.292V13.21H75.5127ZM74.8926 12.5605C74.6973 12.5605 74.5296 12.4922 74.3896 12.3555C74.2529 12.2155 74.1846 12.0462 74.1846 11.8477C74.1846 11.6523 74.2529 11.4847 74.3896 11.3447C74.5296 11.2015 74.6973 11.1299 74.8926 11.1299C75.0911 11.1299 75.2604 11.2015 75.4004 11.3447C75.5436 11.4847 75.6152 11.6523 75.6152 11.8477C75.6152 12.0462 75.5452 12.2155 75.4053 12.3555C75.2653 12.4922 75.0944 12.5605 74.8926 12.5605ZM76.4404 14.2891V13.21H77.29V11.9697H78.5107V13.21H79.8096V14.2891H78.5205V16.3203C78.5205 16.7663 78.7044 16.9893 79.0723 16.9893C79.3066 16.9893 79.4922 16.9095 79.6289 16.75L80.1807 17.6582C79.8454 17.9805 79.4092 18.1416 78.8721 18.1416C78.3773 18.1416 77.9883 17.9886 77.7051 17.6826C77.4219 17.3766 77.2803 16.9355 77.2803 16.3594V14.2891H76.4404ZM86.6406 17.8047C86.2565 18.0293 85.8366 18.1416 85.3809 18.1416C84.9251 18.1416 84.5052 18.0293 84.1211 17.8047C83.7402 17.5768 83.4391 17.2692 83.2178 16.8818C82.9997 16.4945 82.8906 16.0713 82.8906 15.6123C82.8906 15.1533 82.9997 14.7285 83.2178 14.3379C83.4391 13.9473 83.7402 13.638 84.1211 13.4102C84.5052 13.1823 84.9251 13.0684 85.3809 13.0684C85.8366 13.0684 86.2565 13.1823 86.6406 13.4102C87.0247 13.638 87.3275 13.9473 87.5488 14.3379C87.7702 14.7285 87.8809 15.1533 87.8809 15.6123C87.8809 16.068 87.7702 16.4912 87.5488 16.8818C87.3275 17.2692 87.0247 17.5768 86.6406 17.8047ZM85.3906 16.9893C85.752 16.9893 86.0514 16.8558 86.2891 16.5889C86.5299 16.3187 86.6504 15.9883 86.6504 15.5977C86.6504 15.207 86.5316 14.8799 86.2939 14.6162C86.0563 14.3525 85.7552 14.2207 85.3906 14.2207C85.0228 14.2207 84.7168 14.3542 84.4727 14.6211C84.2318 14.8848 84.1113 15.2103 84.1113 15.5977C84.1113 15.9883 84.2318 16.3187 84.4727 16.5889C84.7168 16.8558 85.0228 16.9893 85.3906 16.9893ZM90.21 15.2803V18H88.9893V13.21H90.21V13.6787C90.5192 13.2718 90.9701 13.0684 91.5625 13.0684C92.1191 13.0684 92.5618 13.2523 92.8906 13.6201C93.2194 13.9847 93.3838 14.4779 93.3838 15.0996V18H92.1631V15.2803C92.1631 14.9548 92.0752 14.6976 91.8994 14.5088C91.7236 14.3167 91.4876 14.2207 91.1914 14.2207C90.8887 14.2207 90.6494 14.3167 90.4736 14.5088C90.2979 14.6976 90.21 14.9548 90.21 15.2803Z" fill="white"></path><defs><linearGradient id="paint0_linear_7296_22869" x1="30.3379" y1="9.94566" x2="6.18849" y2="16.219" gradientUnits="userSpaceOnUse"><stop stop-color="#00A0FF"></stop><stop offset="0.007" stop-color="#00A1FF"></stop><stop offset="0.26" stop-color="#00BEFF"></stop><stop offset="0.512" stop-color="#00D2FF"></stop><stop offset="0.76" stop-color="#00DFFF"></stop><stop offset="1" stop-color="#00E3FF"></stop></linearGradient><linearGradient id="paint1_linear_7296_22869" x1="44.9354" y1="23.9957" x2="15.5871" y2="23.9957" gradientUnits="userSpaceOnUse"><stop stop-color="#FFE000"></stop><stop offset="0.409" stop-color="#FFBD00"></stop><stop offset="0.775" stop-color="#FFA500"></stop><stop offset="1" stop-color="#FF9C00"></stop></linearGradient><linearGradient id="paint2_linear_7296_22869" x1="34.0095" y1="26.8532" x2="13.952" y2="59.765" gradientUnits="userSpaceOnUse"><stop stop-color="#FF3A44"></stop><stop offset="1" stop-color="#C31162"></stop></linearGradient><linearGradient id="paint3_linear_7296_22869" x1="12.7452" y1="-0.664054" x2="21.6937" y2="14.0352" gradientUnits="userSpaceOnUse"><stop stop-color="#32A071"></stop><stop offset="0.069" stop-color="#2DA771"></stop><stop offset="0.476" stop-color="#15CF74"></stop><stop offset="0.801" stop-color="#06E775"></stop><stop offset="1" stop-color="#00F076"></stop></linearGradient></defs></svg>