<svg xmlns="http://www.w3.org/2000/svg" width="1440" height="1080" viewBox="0 0 1440 1080" fill="none"><mask id="mask0_7298_21276" style="mask-type:alpha" maskUnits="userSpaceOnUse" x="0" y="0" width="1440" height="1080"><rect width="1440" height="1080" transform="matrix(-1 0 0 1 1440 0)" fill="#F0FAFB"></rect></mask><g mask="url(#mask0_7298_21276)"><g opacity="0.16" filter="url(#filter0_f_7298_21276)"><ellipse rx="550.5" ry="617.514" transform="matrix(-1 0 0 1 357.5 57.3699)" fill="#17D7C0"></ellipse></g><g opacity="0.16" filter="url(#filter1_f_7298_21276)"><ellipse rx="501.5" ry="516.069" transform="matrix(-1 0 0 1 308.5 95.7227)" fill="#2097F7"></ellipse></g><g opacity="0.32" filter="url(#filter2_f_7298_21276)"><ellipse rx="583.5" ry="545.723" transform="matrix(-1 0 0 1 1099.5 -139.277)" fill="#17D7C0"></ellipse></g><g opacity="0.24" filter="url(#filter3_f_7298_21276)"><ellipse rx="455" ry="454.162" transform="matrix(-1 0 0 1 1244 230.087)" fill="#6E6BFF"></ellipse></g><g filter="url(#filter4_f_7298_21276)"><ellipse rx="461.5" ry="480.173" transform="matrix(-1 0 0 1 784.5 293.555)" fill="#D50080" fill-opacity="0.12"></ellipse></g><g filter="url(#filter5_f_7298_21276)"><ellipse rx="423.5" ry="459.884" transform="matrix(-1 0 0 1 248.5 -37.8324)" fill="#D3D718" fill-opacity="0.32"></ellipse></g></g><defs><filter id="filter0_f_7298_21276" x="-393" y="-760.145" width="1501" height="1635.03" filterUnits="userSpaceOnUse" color-interpolation-filters="sRGB"><feGaussianBlur stdDeviation="100"></feGaussianBlur></filter><filter id="filter1_f_7298_21276" x="-393" y="-620.347" width="1403" height="1432.14" filterUnits="userSpaceOnUse" color-interpolation-filters="sRGB"><feGaussianBlur stdDeviation="100"></feGaussianBlur></filter><filter id="filter2_f_7298_21276" x="316" y="-885" width="1567" height="1491.45" filterUnits="userSpaceOnUse" color-interpolation-filters="sRGB"><feGaussianBlur stdDeviation="100"></feGaussianBlur></filter><filter id="filter3_f_7298_21276" x="589" y="-424.075" width="1310" height="1308.32" filterUnits="userSpaceOnUse" color-interpolation-filters="sRGB"><feGaussianBlur stdDeviation="100"></feGaussianBlur></filter><filter id="filter4_f_7298_21276" x="123" y="-386.618" width="1323" height="1360.35" filterUnits="userSpaceOnUse" color-interpolation-filters="sRGB"><feGaussianBlur stdDeviation="100"></feGaussianBlur></filter><filter id="filter5_f_7298_21276" x="-375" y="-697.717" width="1247" height="1319.77" filterUnits="userSpaceOnUse" color-interpolation-filters="sRGB"><feGaussianBlur stdDeviation="100"></feGaussianBlur></filter></defs></svg>